<?xml version="1.0" standalone="no"?><!DOCTYPE svg PUBLIC "-//W3C//DTD SVG 1.1//EN" "http://www.w3.org/Graphics/SVG/1.1/DTD/svg11.dtd"><svg t="1728395985544" class="icon" viewBox="0 0 1024 1024" version="1.1" xmlns="http://www.w3.org/2000/svg" p-id="9648" xmlns:xlink="http://www.w3.org/1999/xlink" width="64" height="64"><path d="M949.333333 846.933333H70.4c-17.066667 0-32-14.933333-32-32s14.933333-32 32-32h878.933333c17.066667 0 32 14.933333 32 32s-14.933333 32-32 32z" fill="#FFBB12" p-id="9649"></path><path d="M185.6 706.133333h-42.666667c-57.6 0-104.533333-46.933333-104.533333-104.533333v-177.066667C38.4 366.933333 85.333333 320 142.933333 320h42.666667c57.6 0 104.533333 46.933333 104.533333 104.533333v177.066667c0 57.6-46.933333 104.533333-104.533333 104.533333zM142.933333 384c-21.333333 0-40.533333 17.066667-40.533333 40.533333v177.066667c0 21.333333 17.066667 40.533333 40.533333 40.533333h42.666667c21.333333 0 40.533333-17.066667 40.533333-40.533333v-177.066667c0-21.333333-17.066667-40.533333-40.533333-40.533333h-42.666667zM524.8 706.133333h-42.666667c-57.6 0-104.533333-46.933333-104.533333-104.533333V221.866667c0-57.6 46.933333-104.533333 104.533333-104.533334h42.666667c57.6 0 104.533333 46.933333 104.533333 104.533334v379.733333c0 57.6-46.933333 104.533333-104.533333 104.533333zM480 181.333333c-21.333333 0-40.533333 17.066667-40.533333 40.533334v379.733333c0 21.333333 17.066667 40.533333 40.533333 40.533333h42.666667c21.333333 0 40.533333-17.066667 40.533333-40.533333V221.866667c0-21.333333-17.066667-40.533333-40.533333-40.533334h-42.666667zM876.8 706.133333h-42.666667c-57.6 0-104.533333-46.933333-104.533333-104.533333V354.133333c0-57.6 46.933333-104.533333 104.533333-104.533333h42.666667c57.6 0 104.533333 46.933333 104.533333 104.533333v247.466667c0 57.6-46.933333 104.533333-104.533333 104.533333z m-42.666667-390.4c-21.333333 0-40.533333 17.066667-40.533333 40.533334v247.466666c0 21.333333 17.066667 40.533333 40.533333 40.533334h42.666667c21.333333 0 40.533333-17.066667 40.533333-40.533334V354.133333c0-21.333333-17.066667-40.533333-40.533333-40.533333h-42.666667z" fill="#543E3E" p-id="9650"></path></svg>